<?xml version="1.0" encoding="UTF-8"?>
<svg id="Capa_2" data-name="Capa 2" xmlns="http://www.w3.org/2000/svg" viewBox="0 0 249.67 98">
  <defs>
    <style>
      .cls-1 {
        fill: #fff;
      }
    </style>
  </defs>
  <g id="Capa_1-2" data-name="Capa 1">
    <g>
      <g>
        <path class="cls-1" d="m125.01,41.33c.7,0,1.28-.06,1.74-.18.46-.12.83-.28,1.1-.48.28-.2.47-.44.58-.72.11-.28.16-.59.16-.93,0-.72-.34-1.33-1.02-1.81-.68-.48-1.85-1-3.51-1.55-.72-.26-1.45-.55-2.17-.88s-1.37-.75-1.95-1.25c-.58-.5-1.04-1.11-1.41-1.82-.36-.71-.54-1.58-.54-2.6s.19-1.94.58-2.76c.38-.82.93-1.52,1.63-2.09.7-.58,1.55-1.02,2.56-1.33,1-.31,2.13-.46,3.39-.46,1.49,0,2.78.16,3.87.48,1.09.32,1.98.67,2.68,1.05l-1.44,3.93c-.62-.32-1.31-.6-2.06-.85-.76-.24-1.67-.37-2.73-.37-1.19,0-2.05.17-2.57.5-.52.33-.78.84-.78,1.52,0,.4.1.75.29,1.02s.46.53.81.75.76.43,1.21.61c.46.18.96.37,1.52.56,1.15.43,2.15.85,3,1.26.85.42,1.56.9,2.12,1.45.56.55.98,1.2,1.26,1.95.28.75.42,1.65.42,2.72,0,2.07-.72,3.67-2.17,4.81-1.45,1.14-3.63,1.71-6.55,1.71-.98,0-1.86-.06-2.65-.18-.79-.12-1.49-.26-2.09-.43-.61-.17-1.13-.35-1.57-.54-.44-.19-.8-.37-1.1-.54l1.41-3.96c.66.36,1.47.69,2.44.97.97.29,2.16.43,3.56.43Z"/>
        <path class="cls-1" d="m143.67,27.88c1.41,0,2.58.16,3.51.48.94.32,1.69.78,2.25,1.37.56.6.96,1.32,1.2,2.17.23.85.35,1.8.35,2.84v9.9c-.68.15-1.63.32-2.84.53s-2.68.3-4.41.3c-1.09,0-2.07-.1-2.96-.29-.88-.19-1.64-.51-2.28-.94-.64-.44-1.13-1.01-1.47-1.71-.34-.7-.51-1.57-.51-2.59s.2-1.81.59-2.49.92-1.22,1.58-1.63c.66-.4,1.42-.7,2.27-.88.85-.18,1.74-.27,2.65-.27.62,0,1.17.03,1.64.08.48.05.87.12,1.17.21v-.45c0-.81-.25-1.46-.74-1.95-.49-.49-1.34-.73-2.56-.73-.81,0-1.61.06-2.4.18-.79.12-1.47.28-2.04.5l-.61-3.83c.28-.08.62-.18,1.04-.27.42-.1.87-.18,1.36-.26.49-.07,1.01-.14,1.55-.19s1.09-.08,1.65-.08Zm.38,13.93c.47,0,.92-.01,1.34-.03.43-.02.77-.05,1.02-.1v-3.61c-.19-.04-.48-.08-.86-.13-.38-.04-.73-.06-1.05-.06-.45,0-.87.03-1.26.08-.39.05-.74.15-1.04.3s-.53.35-.7.61c-.17.26-.25.58-.25.96,0,.75.25,1.26.75,1.55.5.29,1.19.43,2.06.43Z"/>
        <path class="cls-1" d="m155.3,28.9c.81-.23,1.85-.45,3.13-.65,1.28-.2,2.62-.3,4.03-.3s2.61.19,3.56.56c.95.37,1.7.9,2.25,1.58s.95,1.49,1.18,2.43c.23.94.35,1.98.35,3.13v9.49h-4.76v-8.91c0-1.53-.2-2.62-.61-3.26-.4-.64-1.16-.96-2.27-.96-.34,0-.7.02-1.09.05-.38.03-.72.07-1.02.11v12.97h-4.76v-16.23Z"/>
        <path class="cls-1" d="m194.21,37.69c0,1.09-.12,2.11-.37,3.07-.25.96-.67,1.79-1.28,2.51-.61.71-1.43,1.28-2.46,1.69-1.03.42-2.34.62-3.91.62-1.45,0-2.7-.18-3.74-.53-1.04-.35-1.91-.76-2.59-1.23l1.66-3.87c.62.36,1.28.68,1.98.96.7.28,1.47.42,2.3.42,1.21,0,2.09-.3,2.62-.89.53-.6.8-1.6.8-3v-14.44h4.98v14.7Z"/>
        <path class="cls-1" d="m213.02,44.56c-.81.23-1.85.45-3.13.66-1.28.2-2.62.3-4.03.3s-2.62-.19-3.56-.58c-.95-.38-1.7-.92-2.25-1.61-.55-.69-.95-1.52-1.18-2.48-.23-.96-.35-2.01-.35-3.16v-9.36h4.76v8.79c0,1.53.2,2.64.61,3.32.4.68,1.16,1.02,2.27,1.02.34,0,.7-.02,1.09-.05.38-.03.72-.07,1.02-.11v-12.97h4.76v16.23Z"/>
        <path class="cls-1" d="m223.53,27.88c1.41,0,2.58.16,3.51.48.94.32,1.69.78,2.25,1.37.56.6.96,1.32,1.2,2.17.23.85.35,1.8.35,2.84v9.9c-.68.15-1.63.32-2.84.53s-2.68.3-4.41.3c-1.09,0-2.07-.1-2.96-.29-.88-.19-1.64-.51-2.28-.94-.64-.44-1.13-1.01-1.47-1.71-.34-.7-.51-1.57-.51-2.59s.2-1.81.59-2.49.92-1.22,1.58-1.63c.66-.4,1.42-.7,2.27-.88.85-.18,1.74-.27,2.65-.27.62,0,1.17.03,1.64.08.48.05.87.12,1.17.21v-.45c0-.81-.25-1.46-.74-1.95-.49-.49-1.34-.73-2.56-.73-.81,0-1.61.06-2.4.18-.79.12-1.47.28-2.04.5l-.61-3.83c.28-.08.62-.18,1.04-.27.42-.1.87-.18,1.36-.26.49-.07,1.01-.14,1.55-.19s1.09-.08,1.65-.08Zm.38,13.93c.47,0,.92-.01,1.34-.03.43-.02.77-.05,1.02-.1v-3.61c-.19-.04-.48-.08-.86-.13-.38-.04-.73-.06-1.05-.06-.45,0-.87.03-1.26.08-.39.05-.74.15-1.04.3s-.53.35-.7.61c-.17.26-.25.58-.25.96,0,.75.25,1.26.75,1.55.5.29,1.19.43,2.06.43Z"/>
        <path class="cls-1" d="m235.16,28.9c.81-.23,1.85-.45,3.13-.65,1.28-.2,2.62-.3,4.03-.3s2.61.19,3.56.56c.95.37,1.7.9,2.25,1.58s.95,1.49,1.18,2.43c.23.94.35,1.98.35,3.13v9.49h-4.76v-8.91c0-1.53-.2-2.62-.61-3.26-.4-.64-1.16-.96-2.27-.96-.34,0-.7.02-1.09.05-.38.03-.72.07-1.02.11v12.97h-4.76v-16.23Z"/>
        <path class="cls-1" d="m128.57,64.17h1.58v7.19c-.29.12-.87.28-1.73.48-.86.19-1.92.29-3.18.29-1.05,0-2.03-.19-2.93-.56-.9-.37-1.68-.91-2.34-1.62-.66-.71-1.18-1.58-1.55-2.63-.37-1.05-.56-2.25-.56-3.6s.2-2.55.61-3.6c.4-1.05.95-1.92,1.64-2.63s1.49-1.25,2.41-1.62c.92-.37,1.89-.56,2.93-.56,1.2,0,2.18.13,2.96.38.78.26,1.34.5,1.7.73l-.54,1.35c-.43-.31-1.02-.56-1.77-.76-.75-.19-1.55-.29-2.42-.29-.81,0-1.57.15-2.28.44-.71.29-1.33.74-1.86,1.33-.53.59-.94,1.32-1.25,2.19s-.45,1.88-.45,3.03c0,1.07.12,2.04.37,2.9.25.86.62,1.6,1.13,2.21.5.61,1.13,1.08,1.87,1.41.75.33,1.61.49,2.58.49.79,0,1.46-.04,1.99-.13s.9-.17,1.08-.24v-6.19Z"/>
        <path class="cls-1" d="m144,65.8c0,.95-.14,1.81-.41,2.58s-.65,1.44-1.14,1.98c-.49.54-1.07.97-1.73,1.27-.67.3-1.4.45-2.21.45s-1.54-.15-2.21-.45c-.67-.3-1.25-.73-1.73-1.27-.49-.54-.87-1.2-1.14-1.98s-.41-1.64-.41-2.58.14-1.81.41-2.58c.27-.78.65-1.44,1.14-1.99.49-.55,1.07-.98,1.73-1.28.67-.3,1.4-.45,2.21-.45s1.54.15,2.21.45c.67.3,1.25.73,1.73,1.28.49.55.87,1.21,1.14,1.99.27.78.41,1.64.41,2.58Zm-1.61,0c0-1.51-.35-2.7-1.05-3.6-.7-.89-1.65-1.34-2.84-1.34s-2.14.45-2.84,1.34c-.7.89-1.05,2.09-1.05,3.6s.35,2.7,1.05,3.58c.7.88,1.64,1.33,2.84,1.33s2.14-.44,2.84-1.33c.7-.88,1.05-2.08,1.05-3.58Z"/>
        <path class="cls-1" d="m148.8,60.49c.26-.2.69-.42,1.27-.64s1.27-.34,2.06-.34c.87,0,1.64.16,2.32.47.67.31,1.25.75,1.71,1.3s.82,1.22,1.06,1.99c.24.77.36,1.61.36,2.53,0,.98-.14,1.85-.43,2.63-.29.78-.69,1.44-1.21,1.98-.52.54-1.14.96-1.86,1.25s-1.53.43-2.41.43c-1.07,0-1.96-.07-2.65-.21s-1.27-.29-1.72-.44v-17.41l1.51-.28v6.75Zm0,9.89c.23.08.58.15,1.04.22s1.06.1,1.8.1c1.3,0,2.35-.42,3.14-1.27.79-.85,1.19-2.06,1.19-3.64,0-.67-.07-1.3-.21-1.9-.14-.6-.37-1.12-.67-1.56-.31-.44-.72-.79-1.22-1.06-.5-.26-1.13-.4-1.87-.4-.36,0-.7.04-1.02.1-.33.07-.63.16-.91.27-.28.11-.52.23-.73.35-.21.12-.38.24-.52.35v8.43Z"/>
        <path class="cls-1" d="m162.72,56.14c0,.36-.11.64-.33.85-.22.21-.48.31-.79.31s-.57-.1-.79-.31c-.22-.21-.33-.49-.33-.85s.11-.64.33-.85c.22-.21.48-.31.79-.31s.57.1.79.31c.22.21.33.49.33.85Zm-.35,15.67h-1.51v-12.04h1.51v12.04Z"/>
        <path class="cls-1" d="m165.65,65.78c0-1.06.15-1.97.45-2.76s.7-1.44,1.19-1.97c.49-.53,1.05-.92,1.68-1.18.63-.26,1.28-.38,1.94-.38,1.47,0,2.65.48,3.53,1.44.88.96,1.32,2.44,1.32,4.45,0,.12,0,.25-.01.37,0,.12-.02.24-.04.35h-8.45c.05,1.47.41,2.61,1.09,3.4s1.77,1.19,3.26,1.19c.82,0,1.47-.08,1.96-.23.48-.16.83-.29,1.05-.4l.28,1.3c-.22.12-.62.27-1.22.44s-1.3.26-2.11.26c-1.06,0-1.96-.16-2.7-.47-.75-.31-1.36-.75-1.84-1.3-.48-.56-.83-1.22-1.05-1.99-.22-.77-.33-1.61-.33-2.53Zm8.54-.95c-.03-1.26-.33-2.23-.88-2.93-.56-.7-1.35-1.05-2.38-1.05-.54,0-1.03.11-1.46.33-.43.22-.8.51-1.12.87-.32.36-.57.79-.75,1.27s-.28.99-.31,1.51h6.89Z"/>
        <path class="cls-1" d="m183.22,59.54c.5,0,.97.04,1.41.12s.75.16.92.23l-.3,1.3c-.12-.06-.38-.13-.76-.2-.38-.07-.88-.1-1.5-.1s-1.18.05-1.57.14c-.4.09-.66.17-.78.23v10.55h-1.51v-11.48c.39-.17.92-.35,1.61-.52.68-.18,1.51-.27,2.49-.27Z"/>
        <path class="cls-1" d="m187.83,60.19c.45-.12,1.06-.26,1.82-.42.76-.15,1.69-.23,2.79-.23.92,0,1.68.13,2.29.4.61.26,1.1.64,1.47,1.13.36.49.62,1.07.78,1.76.16.68.23,1.44.23,2.26v6.73h-1.51v-6.24c0-.85-.06-1.57-.17-2.17-.12-.59-.31-1.07-.58-1.44-.27-.37-.63-.64-1.07-.8-.44-.16-1-.24-1.66-.24-.71,0-1.33.04-1.85.12-.52.08-.86.15-1.01.21v10.57h-1.51v-11.62Z"/>
        <path class="cls-1" d="m211.35,65.8c0,.95-.14,1.81-.41,2.58s-.65,1.44-1.14,1.98c-.49.54-1.07.97-1.73,1.27-.67.3-1.4.45-2.21.45s-1.54-.15-2.21-.45c-.67-.3-1.25-.73-1.73-1.27-.49-.54-.87-1.2-1.14-1.98s-.41-1.64-.41-2.58.14-1.81.41-2.58c.27-.78.65-1.44,1.14-1.99.49-.55,1.07-.98,1.73-1.28.67-.3,1.4-.45,2.21-.45s1.54.15,2.21.45c.67.3,1.25.73,1.73,1.28.49.55.87,1.21,1.14,1.99.27.78.41,1.64.41,2.58Zm-1.61,0c0-1.51-.35-2.7-1.05-3.6-.7-.89-1.65-1.34-2.84-1.34s-2.14.45-2.84,1.34c-.7.89-1.05,2.09-1.05,3.6s.35,2.7,1.05,3.58c.7.88,1.64,1.33,2.84,1.33s2.14-.44,2.84-1.33c.7-.88,1.05-2.08,1.05-3.58Z"/>
      </g>
      <g>
        <path class="cls-1" d="m96.08,29.51c2.18,5.25,2.48,10.96.93,16.35-2.79-5.1-7.09-9.13-12.39-11.6,2.01-5.5,2.2-11.39.57-16.96,4.74,2.63,8.66,6.82,10.89,12.21Z"/>
        <path class="cls-1" d="m82.13,82.16c-5.44,2.12-11.62,2.35-17.47.24,2.04-5.6,2.18-11.61.44-17.27,2.61.8,5.3,1.21,7.99,1.21,3.14,0,6.27-.55,9.29-1.64,2.11,5.85,1.87,12.03-.25,17.47Z"/>
        <path class="cls-1" d="m48.97,95.89c-5.56-2.43-9.96-6.72-12.52-12.19,5.55-2.59,9.84-6.85,12.53-11.93,2.69,5.08,6.98,9.34,12.52,11.94-2.57,5.47-6.97,9.75-12.53,12.18Z"/>
        <path class="cls-1" d="m15.82,82.15c-2.21-5.65-2.29-11.79-.24-17.47,3.05,1.11,6.18,1.63,9.26,1.63,2.74,0,5.45-.42,8.03-1.21-1.69,5.49-1.67,11.54.41,17.3-5.68,2.05-11.82,1.96-17.47-.25Z"/>
        <path class="cls-1" d="m15.84,15.84c2.93-1.14,5.98-1.72,9.04-1.72,2.84,0,5.69.5,8.43,1.48-2.04,5.6-2.18,11.61-.44,17.27-5.66-1.74-11.67-1.6-17.27.44-2.05-5.68-1.96-11.82.25-17.47Z"/>
        <path class="cls-1" d="m49.01,2.12c5.55,2.43,9.95,6.72,12.51,12.18-5.4,2.52-9.76,6.67-12.53,11.9-2.77-5.24-7.12-9.38-12.52-11.91,2.65-5.63,7.19-9.84,12.54-12.18Z"/>
        <path class="cls-1" d="m82.15,15.87c2.2,5.65,2.29,11.78.23,17.46-5.6-2.04-11.61-2.18-17.27-.44,1.74-5.66,1.6-11.67-.44-17.28,2.76-.99,5.59-1.47,8.38-1.47,3.13,0,6.22.6,9.09,1.72Z"/>
        <path class="cls-1" d="m14.29,36.47c2.52,5.41,6.67,9.76,11.92,12.54-5.07,2.69-9.33,6.98-11.92,12.52-5.63-2.65-9.83-7.18-12.17-12.53,2.34-5.35,6.55-9.88,12.18-12.52Z"/>
        <path class="cls-1" d="m83.69,61.54c-2.59-5.54-6.85-9.83-11.92-12.52,5.24-2.77,9.4-7.13,11.92-12.53,5.47,2.57,9.75,6.97,12.18,12.53-2.43,5.56-6.72,9.96-12.19,12.52Z"/>
        <path class="cls-1" d="m59.01.02c3.17,0,6.39.61,9.49,1.9,5.26,2.18,9.52,6.01,12.23,10.92-5.41-1.58-11.34-1.51-16.98.54-2.46-5.31-6.49-9.6-11.58-12.39C54.38.35,56.68.02,59.01.02Z"/>
        <path class="cls-1" d="m29.49,1.91c3.07-1.27,6.29-1.91,9.52-1.91,2.3,0,4.6.33,6.85.98-4.94,2.71-9.09,6.95-11.62,12.39-5.5-2.01-11.39-2.2-16.97-.57,2.71-4.9,6.97-8.72,12.22-10.89Z"/>
        <path class="cls-1" d="m1.9,29.48c2.18-5.25,6-9.5,10.9-12.22-1.63,5.57-1.45,11.47.56,16.97-5.44,2.53-9.68,6.67-12.39,11.6-1.5-5.22-1.31-10.96.93-16.35Z"/>
        <path class="cls-1" d="m1.89,68.49c-2.23-5.4-2.42-11.14-.92-16.35,2.71,4.94,6.94,9.08,12.38,11.61-2.01,5.5-2.2,11.39-.57,16.97-4.9-2.71-8.72-6.97-10.89-12.22Z"/>
        <path class="cls-1" d="m29.47,96.09c-5.25-2.18-9.5-6-12.22-10.9,2.5.73,5.06,1.1,7.63,1.1,3.15,0,6.31-.56,9.34-1.66,2.47,5.31,6.5,9.61,11.6,12.4-5.39,1.55-11.1,1.24-16.35-.94Z"/>
        <path class="cls-1" d="m68.48,96.1c-5.25,2.18-10.96,2.48-16.35.93,5.1-2.79,9.13-7.09,11.6-12.39,3.06,1.12,6.21,1.65,9.32,1.65,2.61,0,5.18-.38,7.65-1.1-2.63,4.75-6.83,8.67-12.22,10.91Z"/>
        <path class="cls-1" d="m96.07,68.52c-2.24,5.39-6.16,9.58-10.91,12.22,1.58-5.41,1.51-11.33-.55-16.97,5.31-2.47,9.61-6.5,12.4-11.6,1.55,5.39,1.24,11.1-.94,16.35Z"/>
        <path class="cls-1" d="m62.13,34s.02-.01.04-.02c2.22-5.64,2.31-11.77.28-17.45-5.45,2.57-9.72,6.97-12.14,12.52,0,.02.01.04.02.05,4.51.3,8.61,2.09,11.81,4.89Z"/>
        <path class="cls-1" d="m35.87,34c3.2-2.8,7.29-4.59,11.8-4.89,0-.02.01-.04.02-.06-2.42-5.55-6.69-9.95-12.14-12.53-2.04,5.68-1.94,11.81.27,17.45.02,0,.03.02.05.02Z"/>
        <path class="cls-1" d="m29.1,47.68c.3-4.51,2.09-8.61,4.89-11.81,0-.02-.02-.03-.02-.05-2.94-1.16-6.01-1.74-9.09-1.74-2.82,0-5.64.49-8.36,1.46,2.58,5.46,6.98,9.73,12.54,12.15.01,0,.03,0,.04-.01Z"/>
        <path class="cls-1" d="m29.1,50.33s-.03-.01-.04-.02c-5.34,2.33-9.88,6.52-12.54,12.13,5.85,2.09,12.03,1.85,17.46-.28,0,0,0-.01.01-.02-2.8-3.2-4.59-7.3-4.89-11.81Z"/>
        <path class="cls-1" d="m35.84,63.99s-.01,0-.02,0c-2.14,5.43-2.38,11.61-.29,17.46,5.62-2.66,9.82-7.2,12.15-12.55,0,0,0,0,0-.01-4.52-.3-8.63-2.1-11.83-4.91Z"/>
        <path class="cls-1" d="m62.13,64.01c-3.21,2.81-7.32,4.61-11.84,4.9,0,0,0,0,0,.01,2.33,5.35,6.52,9.89,12.14,12.55,2.04-5.68,1.94-11.81-.27-17.45,0,0-.02,0-.02-.01Z"/>
        <path class="cls-1" d="m68.92,50.32s-.02,0-.03.01c-.3,4.52-2.09,8.62-4.9,11.83,0,0,0,.02.01.02,5.64,2.22,11.77,2.31,17.45.28-2.65-5.61-7.19-9.81-12.53-12.14Z"/>
        <path class="cls-1" d="m73.09,34.1c-3.07,0-6.14.58-9.08,1.74,0,.01-.01.02-.02.03,2.81,3.2,4.61,7.31,4.9,11.83,0,0,.01,0,.02,0,5.56-2.42,9.97-6.69,12.55-12.14-2.72-.98-5.55-1.46-8.37-1.46Z"/>
        <circle class="cls-1" cx="49" cy="49.01" r="17.45"/>
      </g>
    </g>
  </g>
</svg>