<svg width="180" height="71" viewBox="0 0 180 71" fill="none" xmlns="http://www.w3.org/2000/svg">
<g clip-path="url(#clip0_163_669)">
<path d="M90.1262 29.8672C90.6308 29.8672 91.049 29.8239 91.3806 29.7371C91.7123 29.6504 91.979 29.5348 92.1737 29.3903C92.3755 29.2457 92.5125 29.0723 92.5918 28.87C92.6711 28.6676 92.7072 28.4436 92.7072 28.1979C92.7072 27.6776 92.4621 27.2368 91.9718 26.8899C91.4816 26.543 90.638 26.1672 89.4413 25.7698C88.9222 25.5819 88.3959 25.3723 87.8768 25.1339C87.3577 24.8954 86.8891 24.5919 86.4709 24.2305C86.0528 23.8692 85.7212 23.4284 85.4544 22.9153C85.1949 22.4022 85.0651 21.7735 85.0651 21.0364C85.0651 20.2993 85.2021 19.6345 85.4832 19.0419C85.7572 18.4493 86.1537 17.9435 86.6584 17.5316C87.1631 17.1124 87.7759 16.7945 88.504 16.5705C89.225 16.3464 90.0397 16.238 90.9481 16.238C92.0223 16.238 92.9523 16.3537 93.7381 16.5849C94.524 16.8162 95.1656 17.0691 95.6703 17.3437L94.6321 20.1837C94.1851 19.9525 93.6877 19.7501 93.147 19.5695C92.599 19.396 91.943 19.3021 91.1788 19.3021C90.3208 19.3021 89.7008 19.4249 89.3259 19.6634C88.951 19.9019 88.7636 20.2704 88.7636 20.7618C88.7636 21.0509 88.8357 21.3038 88.9727 21.4989C89.1096 21.694 89.3043 21.8819 89.5566 22.0409C89.809 22.1999 90.1045 22.3517 90.429 22.4817C90.7606 22.6118 91.1211 22.7491 91.5248 22.8864C92.3539 23.1972 93.0749 23.5007 93.6877 23.797C94.3005 24.1005 94.8124 24.4473 95.2161 24.8448C95.6198 25.2423 95.9226 25.712 96.1245 26.254C96.3264 26.7959 96.4273 27.4463 96.4273 28.2196C96.4273 29.7155 95.9082 30.8717 94.8628 31.6955C93.8174 32.5193 92.2458 32.9312 90.1406 32.9312C89.4341 32.9312 88.7996 32.8879 88.2301 32.8012C87.6605 32.7144 87.1559 32.6133 86.7233 32.4904C86.2835 32.3676 85.9086 32.2375 85.5914 32.1002C85.2742 31.9629 85.0146 31.8328 84.7983 31.71L85.8149 28.8483C86.2907 29.1084 86.8747 29.3469 87.574 29.5492C88.2733 29.7588 89.1313 29.86 90.1406 29.86L90.1262 29.8672Z" fill="white"/>
<path d="M103.579 20.1475C104.596 20.1475 105.439 20.2631 106.11 20.4943C106.787 20.7256 107.328 21.058 107.732 21.4844C108.135 21.918 108.424 22.4383 108.597 23.0525C108.763 23.6668 108.849 24.3533 108.849 25.1048V32.2591C108.359 32.3675 107.674 32.4903 106.802 32.6421C105.929 32.7938 104.87 32.8589 103.622 32.8589C102.836 32.8589 102.13 32.7866 101.488 32.6493C100.854 32.512 100.306 32.2808 99.8445 31.97C99.3831 31.652 99.0298 31.2401 98.7847 30.7343C98.5396 30.2284 98.417 29.5997 98.417 28.8626C98.417 28.1255 98.5612 27.5546 98.8424 27.0632C99.1235 26.5718 99.5056 26.1816 99.9815 25.8853C100.457 25.5962 101.005 25.3794 101.618 25.2494C102.231 25.1193 102.872 25.0543 103.529 25.0543C103.976 25.0543 104.372 25.0759 104.711 25.1121C105.057 25.1482 105.338 25.1988 105.554 25.2638V24.9386C105.554 24.3533 105.374 23.8836 105.021 23.5295C104.668 23.1754 104.055 23.0019 103.175 23.0019C102.591 23.0019 102.015 23.0453 101.445 23.132C100.875 23.2187 100.385 23.3343 99.9743 23.4933L99.5345 20.7256C99.7363 20.6678 99.9815 20.5955 100.284 20.5305C100.587 20.4582 100.911 20.4004 101.265 20.3426C101.618 20.292 101.993 20.2414 102.382 20.2053C102.772 20.1691 103.168 20.1475 103.572 20.1475H103.579ZM103.853 30.214C104.192 30.214 104.516 30.2067 104.819 30.1923C105.129 30.1778 105.374 30.1562 105.554 30.12V27.5113C105.417 27.4824 105.208 27.4534 104.934 27.4173C104.66 27.3884 104.408 27.374 104.177 27.374C103.853 27.374 103.55 27.3956 103.269 27.4318C102.988 27.4679 102.735 27.5402 102.519 27.6486C102.303 27.757 102.137 27.9015 102.015 28.0894C101.892 28.2773 101.834 28.5085 101.834 28.7831C101.834 29.3251 102.015 29.6937 102.375 29.9032C102.735 30.1128 103.233 30.214 103.86 30.214H103.853Z" fill="white"/>
<path d="M111.964 20.8848C112.548 20.7185 113.298 20.5596 114.22 20.415C115.143 20.2705 116.109 20.1982 117.126 20.1982C118.142 20.1982 119.007 20.3355 119.692 20.6029C120.377 20.8703 120.918 21.2533 121.315 21.7447C121.711 22.2361 121.999 22.8215 122.165 23.5008C122.331 24.18 122.418 24.9316 122.418 25.7626V32.6206H118.986V26.1818C118.986 25.0761 118.842 24.2884 118.546 23.8259C118.258 23.3634 117.71 23.1322 116.909 23.1322C116.664 23.1322 116.405 23.1467 116.124 23.1683C115.85 23.19 115.605 23.2189 115.388 23.2478V32.6206H111.957V20.892L111.964 20.8848Z" fill="white"/>
<path d="M140.016 27.2368C140.016 28.0245 139.93 28.7616 139.749 29.4554C139.569 30.1491 139.266 30.7489 138.826 31.2692C138.387 31.7823 137.796 32.1942 137.053 32.4905C136.31 32.794 135.366 32.9385 134.234 32.9385C133.189 32.9385 132.287 32.8084 131.538 32.5555C130.788 32.3026 130.161 32.0063 129.67 31.6667L130.867 28.87C131.314 29.1302 131.79 29.3614 132.295 29.5638C132.799 29.7661 133.354 29.8673 133.953 29.8673C134.825 29.8673 135.46 29.6505 135.842 29.2241C136.224 28.7905 136.419 28.0679 136.419 27.0562V16.6211H140.009V27.244L140.016 27.2368Z" fill="white"/>
<path d="M153.577 32.2013C152.993 32.3675 152.244 32.5265 151.321 32.6782C150.398 32.8227 149.432 32.895 148.415 32.895C147.399 32.895 146.526 32.7577 145.849 32.4759C145.164 32.2013 144.623 31.811 144.227 31.3124C143.83 30.8138 143.542 30.214 143.376 29.5202C143.21 28.8265 143.124 28.0677 143.124 27.2367V20.4727H146.555V26.8247C146.555 27.9304 146.699 28.7325 146.995 29.2239C147.283 29.7153 147.831 29.961 148.632 29.961C148.877 29.961 149.136 29.9466 149.417 29.9249C149.691 29.9032 149.937 29.8743 150.153 29.8454V20.4727H153.585V32.2013H153.577Z" fill="white"/>
<path d="M161.154 20.1475C162.171 20.1475 163.014 20.2631 163.685 20.4943C164.362 20.7256 164.903 21.058 165.307 21.4844C165.711 21.918 165.999 22.4383 166.172 23.0525C166.338 23.6668 166.424 24.3533 166.424 25.1048V32.2591C165.934 32.3675 165.249 32.4903 164.377 32.6421C163.505 32.7938 162.445 32.8589 161.197 32.8589C160.412 32.8589 159.705 32.7866 159.063 32.6493C158.429 32.512 157.881 32.2808 157.42 31.97C156.958 31.652 156.605 31.2401 156.36 30.7343C156.115 30.2284 155.992 29.5997 155.992 28.8626C155.992 28.1255 156.136 27.5546 156.418 27.0632C156.699 26.5718 157.081 26.1816 157.557 25.8853C158.032 25.5962 158.58 25.3794 159.193 25.2494C159.806 25.1193 160.448 25.0543 161.104 25.0543C161.551 25.0543 161.947 25.0759 162.286 25.1121C162.632 25.1482 162.913 25.1988 163.13 25.2638V24.9386C163.13 24.3533 162.949 23.8836 162.596 23.5295C162.243 23.1754 161.63 23.0019 160.75 23.0019C160.167 23.0019 159.59 23.0453 159.02 23.132C158.451 23.2187 157.96 23.3343 157.549 23.4933L157.11 20.7256C157.312 20.6678 157.557 20.5955 157.859 20.5305C158.162 20.4582 158.487 20.4004 158.84 20.3426C159.193 20.292 159.568 20.2414 159.957 20.2053C160.347 20.1691 160.743 20.1475 161.147 20.1475H161.154ZM161.428 30.214C161.767 30.214 162.091 30.2067 162.394 30.1923C162.704 30.1778 162.949 30.1562 163.13 30.12V27.5113C162.993 27.4824 162.784 27.4534 162.51 27.4173C162.236 27.3884 161.983 27.374 161.753 27.374C161.428 27.374 161.125 27.3956 160.844 27.4318C160.563 27.4679 160.311 27.5402 160.094 27.6486C159.878 27.757 159.712 27.9015 159.59 28.0894C159.467 28.2773 159.41 28.5085 159.41 28.7831C159.41 29.3251 159.59 29.6937 159.95 29.9032C160.311 30.1128 160.808 30.214 161.435 30.214H161.428Z" fill="white"/>
<path d="M169.539 20.8848C170.123 20.7185 170.873 20.5596 171.796 20.415C172.718 20.2705 173.684 20.1982 174.701 20.1982C175.718 20.1982 176.583 20.3355 177.268 20.6029C177.952 20.8703 178.493 21.2533 178.89 21.7447C179.286 22.2361 179.575 22.8215 179.74 23.5008C179.906 24.18 179.993 24.9316 179.993 25.7626V32.6206H176.561V26.1818C176.561 25.0761 176.417 24.2884 176.121 23.8259C175.833 23.3634 175.285 23.1322 174.485 23.1322C174.24 23.1322 173.98 23.1467 173.699 23.1683C173.425 23.19 173.18 23.2189 172.963 23.2478V32.6206H169.532V20.892L169.539 20.8848Z" fill="white"/>
<path d="M92.6926 46.3726H93.8317V51.5685C93.6226 51.6552 93.2045 51.7708 92.5844 51.9154C91.9644 52.0527 91.2002 52.1249 90.2918 52.1249C89.5348 52.1249 88.8283 51.9876 88.1794 51.7203C87.5306 51.4529 86.9682 51.0626 86.4924 50.5496C86.0166 50.0365 85.6417 49.4078 85.3749 48.649C85.1082 47.8902 84.9712 47.023 84.9712 46.0475C84.9712 45.0719 85.1154 44.2047 85.411 43.4459C85.6994 42.6871 86.0959 42.0584 86.5933 41.5453C87.0908 41.0323 87.6675 40.642 88.3308 40.3747C88.9941 40.1073 89.6934 39.97 90.4432 39.97C91.3084 39.97 92.0149 40.0639 92.5772 40.2446C93.1396 40.4325 93.5433 40.6059 93.8028 40.7721L93.4135 41.7477C93.1035 41.5237 92.6782 41.343 92.1375 41.1985C91.5967 41.0612 91.02 40.9889 90.3927 40.9889C89.8088 40.9889 89.2609 41.0973 88.749 41.3069C88.2371 41.5164 87.7901 41.8416 87.408 42.268C87.0259 42.6944 86.7303 43.2219 86.5068 43.8506C86.2833 44.4793 86.1824 45.2092 86.1824 46.0402C86.1824 46.8135 86.2689 47.5144 86.4491 48.1359C86.6294 48.7574 86.8961 49.2922 87.2638 49.733C87.6243 50.1738 88.0785 50.5134 88.612 50.7519C89.1527 50.9904 89.7727 51.106 90.4721 51.106C91.0416 51.106 91.5246 51.0771 91.9067 51.0121C92.2889 50.947 92.5556 50.8892 92.6854 50.8386V46.3654L92.6926 46.3726Z" fill="white"/>
<path d="M103.817 47.5505C103.817 48.237 103.716 48.8585 103.521 49.4149C103.327 49.9714 103.053 50.4555 102.699 50.8458C102.346 51.236 101.928 51.5467 101.452 51.7635C100.969 51.9803 100.443 52.0887 99.8589 52.0887C99.2749 52.0887 98.7486 51.9803 98.2656 51.7635C97.7826 51.5467 97.3644 51.236 97.0184 50.8458C96.6651 50.4555 96.3911 49.9786 96.1965 49.4149C96.0018 48.8513 95.9009 48.2298 95.9009 47.5505C95.9009 46.8712 96.0018 46.2425 96.1965 45.6861C96.3911 45.1224 96.6651 44.6454 97.0184 44.248C97.3716 43.8505 97.7898 43.5398 98.2656 43.323C98.7486 43.1062 99.2749 42.9978 99.8589 42.9978C100.443 42.9978 100.969 43.1062 101.452 43.323C101.935 43.5398 102.353 43.8505 102.699 44.248C103.053 44.6454 103.327 45.1224 103.521 45.6861C103.716 46.2497 103.817 46.8712 103.817 47.5505ZM102.656 47.5505C102.656 46.4593 102.404 45.5993 101.899 44.949C101.395 44.3058 100.71 43.9806 99.8517 43.9806C98.9938 43.9806 98.3089 44.3058 97.8042 44.949C97.2995 45.5921 97.0472 46.4593 97.0472 47.5505C97.0472 48.6417 97.2995 49.5016 97.8042 50.1376C98.3089 50.7735 98.9865 51.0987 99.8517 51.0987C100.717 51.0987 101.395 50.7807 101.899 50.1376C102.404 49.5016 102.656 48.6345 102.656 47.5505Z" fill="white"/>
<path d="M107.278 43.7132C107.465 43.5687 107.775 43.4097 108.193 43.2507C108.611 43.0917 109.109 43.005 109.678 43.005C110.306 43.005 110.861 43.1206 111.351 43.3446C111.834 43.5687 112.252 43.8866 112.584 44.2841C112.916 44.6815 113.175 45.1657 113.348 45.7222C113.521 46.2786 113.608 46.8856 113.608 47.5505C113.608 48.2587 113.507 48.8874 113.298 49.451C113.089 50.0147 112.8 50.4916 112.425 50.8819C112.05 51.2721 111.603 51.5756 111.084 51.7852C110.565 51.9948 109.981 52.0959 109.347 52.0959C108.575 52.0959 107.934 52.0453 107.436 51.9442C106.939 51.843 106.521 51.7346 106.196 51.6262V39.0449L107.285 38.8425V43.7204L107.278 43.7132ZM107.278 50.8602C107.444 50.918 107.696 50.9686 108.028 51.0192C108.359 51.0698 108.792 51.0914 109.325 51.0914C110.262 51.0914 111.019 50.7879 111.589 50.1737C112.159 49.5594 112.447 48.685 112.447 47.5432C112.447 47.0591 112.396 46.6038 112.296 46.1702C112.195 45.7366 112.029 45.3608 111.812 45.0429C111.589 44.7249 111.293 44.472 110.933 44.2769C110.572 44.089 110.118 43.9878 109.585 43.9878C109.325 43.9878 109.08 44.0167 108.849 44.0601C108.611 44.1106 108.395 44.1757 108.193 44.2552C107.991 44.3347 107.818 44.4214 107.667 44.5081C107.516 44.5948 107.393 44.6815 107.292 44.761V50.853L107.278 50.8602Z" fill="white"/>
<path d="M117.313 40.5697C117.313 40.8299 117.234 41.0322 117.075 41.184C116.917 41.3357 116.729 41.408 116.506 41.408C116.282 41.408 116.095 41.3357 115.936 41.184C115.778 41.0322 115.698 40.8299 115.698 40.5697C115.698 40.3096 115.778 40.1072 115.936 39.9555C116.095 39.8037 116.282 39.7314 116.506 39.7314C116.729 39.7314 116.917 39.8037 117.075 39.9555C117.234 40.1072 117.313 40.3096 117.313 40.5697ZM117.061 51.8936H115.972V43.1929H117.061V51.8936Z" fill="white"/>
<path d="M119.426 47.5359C119.426 46.7699 119.534 46.1123 119.75 45.5414C119.967 44.9705 120.255 44.5008 120.608 44.1178C120.961 43.7348 121.365 43.453 121.819 43.2651C122.274 43.0772 122.742 42.9905 123.218 42.9905C124.278 42.9905 125.129 43.3373 125.763 44.0311C126.397 44.7248 126.715 45.7944 126.715 47.2469C126.715 47.3336 126.715 47.4275 126.707 47.5143C126.707 47.601 126.693 47.6877 126.679 47.7672H120.587C120.623 48.8295 120.882 49.6533 121.372 50.2242C121.863 50.7951 122.648 51.0842 123.723 51.0842C124.314 51.0842 124.782 51.0263 125.136 50.9179C125.482 50.8023 125.734 50.7084 125.893 50.6289L126.095 51.5683C125.936 51.655 125.648 51.7634 125.215 51.8863C124.782 52.0091 124.278 52.0742 123.694 52.0742C122.93 52.0742 122.281 51.9586 121.747 51.7345C121.207 51.5105 120.767 51.1926 120.421 50.7951C120.075 50.3904 119.822 49.9135 119.664 49.357C119.505 48.8006 119.426 48.1936 119.426 47.5287V47.5359ZM125.583 46.8494C125.561 45.9389 125.345 45.2379 124.948 44.7321C124.545 44.2262 123.975 43.9733 123.232 43.9733C122.843 43.9733 122.49 44.0528 122.18 44.2118C121.87 44.3707 121.603 44.5803 121.372 44.8405C121.142 45.1006 120.961 45.4114 120.832 45.7582C120.702 46.1051 120.63 46.4737 120.608 46.8494H125.575H125.583Z" fill="white"/>
<path d="M132.093 43.0266C132.453 43.0266 132.792 43.0555 133.109 43.1133C133.426 43.1711 133.65 43.229 133.773 43.2795L133.556 44.219C133.47 44.1756 133.282 44.125 133.008 44.0745C132.734 44.0239 132.374 44.0022 131.927 44.0022C131.48 44.0022 131.076 44.0383 130.795 44.1034C130.507 44.1684 130.319 44.2262 130.233 44.2696V51.8935H129.144V43.5975C129.425 43.4747 129.807 43.3446 130.305 43.2217C130.795 43.0917 131.393 43.0266 132.1 43.0266H132.093Z" fill="white"/>
<path d="M135.417 43.4963C135.741 43.4096 136.181 43.3084 136.729 43.1928C137.277 43.0844 137.947 43.0266 138.74 43.0266C139.403 43.0266 139.951 43.1206 140.391 43.3157C140.831 43.5036 141.184 43.7782 141.451 44.1323C141.71 44.4864 141.898 44.9055 142.013 45.4041C142.129 45.8955 142.179 46.4447 142.179 47.0373V51.9007H141.09V47.3914C141.09 46.7772 141.047 46.2569 140.968 45.8233C140.881 45.3969 140.744 45.05 140.55 44.7827C140.355 44.5153 140.095 44.3202 139.778 44.2045C139.461 44.0889 139.057 44.0311 138.581 44.0311C138.07 44.0311 137.623 44.06 137.248 44.1178C136.873 44.1756 136.628 44.2262 136.52 44.2696V51.908H135.431V43.5108L135.417 43.4963Z" fill="white"/>
<path d="M152.373 47.5505C152.373 48.237 152.272 48.8585 152.077 49.4149C151.883 49.9714 151.609 50.4555 151.256 50.8458C150.902 51.236 150.484 51.5467 150.008 51.7635C149.525 51.9803 148.999 52.0887 148.415 52.0887C147.831 52.0887 147.305 51.9803 146.822 51.7635C146.339 51.5467 145.921 51.236 145.575 50.8458C145.221 50.4555 144.947 49.9786 144.753 49.4149C144.558 48.8513 144.457 48.2298 144.457 47.5505C144.457 46.8712 144.558 46.2425 144.753 45.6861C144.947 45.1224 145.221 44.6454 145.575 44.248C145.928 43.8505 146.346 43.5398 146.822 43.323C147.305 43.1062 147.831 42.9978 148.415 42.9978C148.999 42.9978 149.525 43.1062 150.008 43.323C150.491 43.5398 150.91 43.8505 151.256 44.248C151.609 44.6454 151.883 45.1224 152.077 45.6861C152.272 46.2497 152.373 46.8712 152.373 47.5505ZM151.212 47.5505C151.212 46.4593 150.96 45.5993 150.455 44.949C149.951 44.3058 149.266 43.9806 148.408 43.9806C147.55 43.9806 146.865 44.3058 146.36 44.949C145.856 45.5921 145.603 46.4593 145.603 47.5505C145.603 48.6417 145.856 49.5016 146.36 50.1376C146.865 50.7735 147.543 51.0987 148.408 51.0987C149.273 51.0987 149.951 50.7807 150.455 50.1376C150.96 49.5016 151.212 48.6345 151.212 47.5505Z" fill="white"/>
<path d="M69.2689 21.3255C70.8406 25.1194 71.0569 29.2457 69.9394 33.1408C67.928 29.4553 64.8279 26.543 61.0068 24.7581C62.4559 20.7835 62.5929 16.5271 61.4178 12.502C64.8351 14.4025 67.6612 17.4304 69.2689 21.3255Z" fill="white"/>
<path d="M59.2117 59.3728C55.2897 60.9049 50.8343 61.0711 46.6167 59.5463C48.0874 55.4994 48.1884 51.1563 46.9339 47.0661C48.8156 47.6442 50.755 47.9405 52.6943 47.9405C54.9581 47.9405 57.2147 47.5431 59.392 46.7554C60.9132 50.9829 60.7401 55.4488 59.2117 59.3801V59.3728Z" fill="white"/>
<path d="M35.3051 69.2948C31.2966 67.5388 28.1244 64.4386 26.2788 60.4857C30.2801 58.6141 33.373 55.5356 35.3123 51.8645C37.2517 55.5356 40.3446 58.6141 44.3386 60.4929C42.4858 64.4458 39.3136 67.5388 35.3051 69.2948Z" fill="white"/>
<path d="M11.4054 59.3657C9.81208 55.2827 9.75441 50.8456 11.2324 46.741C13.4313 47.5431 15.6878 47.9189 17.9084 47.9189C19.8838 47.9189 21.8376 47.6154 23.6976 47.0445C22.4792 51.0118 22.4936 55.3839 23.9932 59.5463C19.8982 61.0278 15.4716 60.9627 11.3982 59.3657H11.4054Z" fill="white"/>
<path d="M11.4201 11.4468C13.5324 10.623 15.7313 10.2039 17.9375 10.2039C19.985 10.2039 22.0397 10.5652 24.0151 11.2734C22.5443 15.3202 22.4434 19.6633 23.6979 23.7535C19.6173 22.4961 15.2844 22.5973 11.247 24.0715C9.76908 19.9669 9.83396 15.5298 11.4273 11.4468H11.4201Z" fill="white"/>
<path d="M35.3337 1.53213C39.335 3.28817 42.5072 6.38834 44.3528 10.334C40.4597 12.1551 37.3163 15.1541 35.3193 18.9335C33.3222 15.1469 30.1861 12.1551 26.293 10.3268C28.2035 6.25826 31.4766 3.2159 35.3337 1.5249V1.53213Z" fill="white"/>
<path d="M59.2263 11.4684C60.8124 15.5514 60.8772 19.9813 59.3921 24.0859C55.3547 22.6117 51.0218 22.5105 46.9412 23.7679C48.1957 19.6777 48.0948 15.3346 46.624 11.2806C48.6139 10.5651 50.6541 10.2183 52.6656 10.2183C54.9222 10.2183 57.1499 10.6519 59.2191 11.4612L59.2263 11.4684Z" fill="white"/>
<path d="M10.3023 26.355C12.1191 30.2645 15.111 33.408 18.896 35.417C15.2408 37.3609 12.1696 40.4611 10.3023 44.4646C6.24334 42.5496 3.21535 39.276 1.52832 35.4098C3.21535 31.5436 6.25055 28.27 10.3095 26.3622L10.3023 26.355Z" fill="white"/>
<path d="M60.3364 44.4718C58.4692 40.4683 55.3979 37.3681 51.7427 35.4242C55.5205 33.4224 58.5196 30.2717 60.3364 26.3694C64.28 28.2266 67.3657 31.4063 69.1176 35.4242C67.3657 39.4421 64.2728 42.6218 60.3292 44.4718H60.3364Z" fill="white"/>
<path d="M42.5431 0.0144043C44.8285 0.0144043 47.15 0.455221 49.385 1.38744C53.1772 2.96282 56.2484 5.73056 58.2022 9.27877C54.3018 8.13699 50.0266 8.18757 45.9604 9.669C44.1869 5.83173 41.2815 2.73157 37.6118 0.715375C39.2051 0.252879 40.8633 0.0144043 42.5431 0.0144043Z" fill="white"/>
<path d="M21.2607 1.38026C23.474 0.462496 25.7955 0 28.1242 0C29.7824 0 31.4406 0.238474 33.0627 0.708197C29.5012 2.66658 26.5092 5.73061 24.6852 9.66183C20.72 8.2093 16.4736 8.072 12.4507 9.24992C14.4045 5.70893 17.4757 2.94841 21.2607 1.38026Z" fill="white"/>
<path d="M1.36965 21.3037C2.94132 17.5098 5.69536 14.4385 9.22802 12.4729C8.05287 16.4981 8.18264 20.7617 9.63175 24.7363C5.70977 26.5646 2.65294 29.5563 0.69916 33.119C-0.382267 29.3468 -0.245287 25.1988 1.36965 21.3037Z" fill="white"/>
<path d="M1.3625 49.4943C-0.245222 45.592 -0.382203 41.444 0.699225 37.679C2.653 41.2488 5.70263 44.2406 9.62461 46.0689C8.17549 50.0435 8.03851 54.2999 9.21366 58.3323C5.681 56.3739 2.92697 53.2954 1.3625 49.5015V49.4943Z" fill="white"/>
<path d="M21.2466 69.4395C17.4616 67.8641 14.3975 65.1036 12.4365 61.5626C14.2389 62.0902 16.0845 62.3576 17.9374 62.3576C20.2084 62.3576 22.4866 61.9529 24.6711 61.158C26.4518 64.9952 29.3573 68.1026 33.0341 70.1188C29.1482 71.2389 25.0315 71.0149 21.2466 69.4395Z" fill="white"/>
<path d="M49.3706 69.4466C45.5856 71.022 41.4689 71.2388 37.583 70.1187C41.2599 68.1025 44.1653 64.9951 45.946 61.165C48.1522 61.9744 50.4232 62.3574 52.6653 62.3574C54.547 62.3574 56.3998 62.0828 58.1806 61.5625C56.2845 64.9951 53.2565 67.8279 49.3706 69.4466Z" fill="white"/>
<path d="M69.2616 49.516C67.6467 53.4111 64.8206 56.439 61.396 58.3468C62.5351 54.4373 62.4847 50.1592 60.9995 46.0834C64.8278 44.2985 67.9279 41.3862 69.9393 37.7007C71.0568 41.5958 70.8333 45.7221 69.2616 49.516Z" fill="white"/>
<path d="M44.7926 24.57C44.7926 24.57 44.8071 24.5628 44.8215 24.5555C46.422 20.4798 46.4869 16.05 45.0233 11.9453C41.0942 13.8025 38.0157 16.9822 36.271 20.9929C36.271 21.0073 36.2782 21.0218 36.2854 21.029C39.5369 21.2458 42.4928 22.5394 44.7999 24.5628L44.7926 24.57Z" fill="white"/>
<path d="M25.8607 24.5701C28.1678 22.5467 31.1165 21.2532 34.368 21.0364C34.368 21.0219 34.3752 21.0075 34.3824 20.993C32.6377 16.9823 29.5592 13.8027 25.63 11.9382C24.1593 16.0429 24.2314 20.4727 25.8247 24.5485C25.8391 24.5485 25.8463 24.5629 25.8607 24.5629V24.5701Z" fill="white"/>
<path d="M20.9797 34.456C21.196 31.1968 22.4865 28.2339 24.5052 25.9215C24.5052 25.907 24.4908 25.8998 24.4908 25.8853C22.3712 25.0471 20.1578 24.6279 17.9373 24.6279C15.9042 24.6279 13.8711 24.982 11.9102 25.683C13.7702 29.6287 16.9424 32.7144 20.9509 34.4632C20.9581 34.4632 20.9725 34.4632 20.9797 34.456Z" fill="white"/>
<path d="M20.9797 36.3709C20.9797 36.3709 20.9581 36.3637 20.9509 36.3564C17.101 38.0402 13.8279 41.0681 11.9102 45.1222C16.1277 46.6325 20.5832 46.4591 24.498 44.9198C24.498 44.9198 24.498 44.9126 24.5052 44.9054C22.4865 42.5929 21.196 39.63 20.9797 36.3709Z" fill="white"/>
<path d="M25.8388 46.2423C25.8388 46.2423 25.8316 46.2423 25.8244 46.2423C24.2816 50.1663 24.1085 54.6323 25.6153 58.8598C29.6671 56.9375 32.6951 53.6567 34.3749 49.7905C34.3749 49.7905 34.3749 49.7905 34.3749 49.7833C31.1162 49.5665 28.1531 48.2658 25.846 46.2351L25.8388 46.2423Z" fill="white"/>
<path d="M44.7929 46.2568C42.4786 48.2875 39.5155 49.5883 36.2568 49.7978C36.2568 49.7978 36.2568 49.7978 36.2568 49.805C37.9367 53.6712 40.9574 56.9521 45.0092 58.8743C46.4799 54.7696 46.4078 50.3398 44.8145 46.2641C44.8145 46.2641 44.8001 46.2641 44.8001 46.2568H44.7929Z" fill="white"/>
<path d="M49.6881 36.3638C49.6881 36.3638 49.6737 36.3638 49.6665 36.371C49.4502 39.6374 48.1597 42.6002 46.1338 44.9199C46.1338 44.9199 46.1338 44.9344 46.141 44.9344C50.2072 46.5387 54.6266 46.6037 58.7216 45.1367C56.8111 41.0827 53.538 38.0475 49.6881 36.3638Z" fill="white"/>
<path d="M52.6944 24.6423C50.4811 24.6423 48.2678 25.0615 46.1482 25.8997C46.1482 25.907 46.141 25.9142 46.1338 25.9214C48.1597 28.2339 49.4574 31.204 49.6665 34.4704C49.6665 34.4704 49.6737 34.4704 49.6809 34.4704C53.6894 32.7216 56.8688 29.6358 58.7288 25.6974C56.7678 24.9892 54.7275 24.6423 52.6944 24.6423Z" fill="white"/>
<path d="M35.3267 48.0274C42.2748 48.0274 47.9073 42.3816 47.9073 35.4171C47.9073 28.4527 42.2748 22.8069 35.3267 22.8069C28.3786 22.8069 22.7461 28.4527 22.7461 35.4171C22.7461 42.3816 28.3786 48.0274 35.3267 48.0274Z" fill="white"/>
</g>
<defs>
<clipPath id="clip0_163_669">
<rect width="180" height="70.8197" fill="white"/>
</clipPath>
</defs>
</svg>
